@startuml
Interface Observer
Observer : update
class NumberGenerator{
    Observers
    addObserver()
    deleteObserver()
    notifyObserver()
    getNumber()
    execute()
}
class RandomNumberGenerator{
    random
    number
    getNumber()
    execute()
}
class DigitObserver{
    update()
}
class GraphObserver{
    update()
}
class Main

Observer <|-- DigitObserver
Observer <|-- GraphObserver
Observer "Notifies"<-o NumberGenerator
NumberGenerator <|-- RandomNumberGenerator
@enduml
